<?xml version="1.0" encoding="UTF-8" standalone="no"?>
<!-- Created with Inkscape (http://www.inkscape.org/) -->

<svg
   width="888.69556"
   height="1024"
   viewBox="0 0 888.69556 1024"
   version="1.1"
   id="svg5"
   xml:space="preserve"
   xmlns="http://www.w3.org/2000/svg"
   xmlns:svg="http://www.w3.org/2000/svg"><defs
     id="defs2" /><g
     id="layer1"
     transform="translate(-3393.8152,-7020.6841)"><path
       id="path10"
       style="fill:#000000;fill-opacity:1;stroke:#ff6bbd;stroke-width:0;stroke-linecap:butt;stroke-linejoin:miter;stroke-dasharray:none;stroke-opacity:1"
       d="m -644.60344,1972.2733 -10e-4,-725.67 1571.12171,907.0868 1571.11893,-907.0859 2e-4,725.6683 -1571.12063,907.0869 z m -10.00043,-901.3135 -10e-4,-1814.17372 628.448588,-362.83498 0.0011,1814.17378 L 1544.9638,1615.211 916.51518,1978.046 Z M 1073.6277,2975.8407 2644.7493,2068.7555 V 254.58176 l 628.4471,362.83431 V 2431.5898 L 1702.0757,3338.6767 Z M 130.9556,617.41687 l 6.1e-4,-1814.17477 1571.11889,-907.0859 628.4498,362.835 -1571.12063,907.08693 1.1e-4,1814.17207 z m 785.56178,-634.960845 -10e-4,-725.669985 1571.12062,-907.08694 1571.1201,907.08783 1e-4,725.668294 -1571.1207,-907.085144 z m 942.67142,-362.835065 628.4469,-362.83398 1571.1207,907.08514 -6e-4,1814.17468 -628.4469,362.834 V 526.70708 Z"
       transform="matrix(0.09427409,0.1632875,0.1632875,-0.09427409,3576.8849,7311.8742)" /></g></svg>
